<?xml version="1.0" standalone="no"?>
<!DOCTYPE svg PUBLIC "-//W3C//DTD SVG 20010904//EN"
 "http://www.w3.org/TR/2001/REC-SVG-20010904/DTD/svg10.dtd">
<svg version="1.0" xmlns="http://www.w3.org/2000/svg"
 width="1472.000000pt" height="832.000000pt" viewBox="0 0 1472.000000 832.000000"
 preserveAspectRatio="xMidYMid meet">

<g transform="translate(0.000000,832.000000) scale(0.100000,-0.100000)"
fill="#000000" stroke="none">
<path d="M6427 7264 c-3 -4 0 -15 7 -25 11 -17 437 -450 1035 -1052 276 -278
455 -448 450 -426 -2 9 -67 82 -144 163 -286 301 -1314 1337 -1334 1344 -4 1
-10 -1 -14 -4z"/>
<path d="M5560 6970 l-175 -5 89 -95 c148 -158 1149 -1170 1157 -1170 4 0 10
10 12 23 2 13 5 5 6 -18 1 -39 17 -56 666 -707 365 -368 669 -668 675 -668 7
0 10 178 8 580 l-3 580 -116 117 c-63 65 -135 141 -159 168 -23 28 -106 114
-183 192 -90 92 -136 146 -131 154 5 8 3 10 -5 5 -8 -5 -62 41 -154 132 -78
77 -182 180 -232 227 -49 48 -147 143 -217 211 -70 68 -135 124 -143 124 -8 0
-15 5 -15 11 0 6 -29 39 -65 74 -59 57 -71 63 -119 69 -55 7 -592 5 -896 -4z"/>
<path d="M4250 6180 c-156 -28 -327 -74 -397 -106 -17 -8 -34 -14 -37 -14 -6
0 -112 -46 -136 -59 -8 -4 -44 -23 -80 -41 -101 -52 -297 -187 -385 -265 -99
-88 -253 -247 -305 -315 -19 -25 -38 -47 -41 -50 -36 -31 -183 -294 -253 -450
-64 -145 -120 -371 -133 -537 -3 -46 -11 -90 -17 -99 -10 -13 -104 -15 -814
-14 -712 0 -802 -1 -802 -15 0 -13 91 -15 811 -15 766 0 810 -1 807 -17 -3
-17 -30 -18 -398 -18 -958 0 -1220 -4 -1220 -19 0 -8 10 -18 21 -21 12 -4 243
-6 513 -5 270 2 625 2 789 1 l297 -1 1 -77 c0 -75 8 -151 28 -278 9 -55 17
-93 41 -185 5 -19 12 -47 16 -63 3 -15 10 -30 15 -33 5 -3 9 -14 9 -25 0 -10
4 -27 9 -37 8 -16 21 -46 40 -94 19 -49 99 -202 130 -248 9 -14 23 -37 30 -51
27 -55 175 -242 264 -335 216 -227 470 -402 744 -513 43 -18 87 -36 98 -41 11
-5 38 -14 60 -20 22 -6 56 -16 75 -21 157 -45 399 -79 543 -78 129 0 423 40
532 71 153 43 242 77 368 139 42 21 78 38 80 37 8 -4 47 15 47 23 0 5 5 9 10
9 15 0 192 123 279 194 100 81 331 307 331 323 0 17 -579 593 -596 593 -7 0
-68 -55 -136 -123 -139 -139 -219 -200 -345 -261 -85 -41 -105 -49 -186 -76
-137 -44 -468 -55 -632 -22 -62 13 -182 55 -255 90 -235 112 -481 363 -585
597 -65 147 -75 176 -94 270 -7 33 -17 76 -22 96 -5 20 -9 61 -9 90 l0 54 417
2 c341 2 420 5 431 17 12 12 -31 15 -295 20 -445 10 -473 23 -50 25 326 1 348
2 345 19 -3 16 -31 17 -410 19 -224 0 -412 4 -419 8 -12 8 -6 81 11 140 4 17
13 53 20 80 13 57 82 208 137 298 56 92 191 244 283 319 117 94 321 189 485
226 128 29 436 23 585 -11 132 -31 196 -57 325 -136 108 -65 196 -134 292
-230 39 -39 77 -71 83 -71 7 0 74 62 150 138 76 75 210 208 299 296 88 87 161
163 161 168 0 10 -119 130 -196 198 -78 70 -180 149 -249 193 -38 25 -75 49
-81 54 -45 34 -328 173 -353 173 -6 0 -19 4 -29 9 -55 29 -217 71 -392 101
-154 26 -516 26 -660 0z"/>
<path d="M8867 5463 c-7 -972 -4 -3349 5 -3359 12 -11 1537 -5 1678 7 252 22
552 116 794 250 139 77 178 103 295 198 168 136 328 306 414 439 121 188 156
254 197 367 10 28 28 75 40 105 51 127 99 363 107 528 3 66 9 102 16 103 13 2
560 5 1115 8 l352 1 0 25 0 25 -602 1 c-332 0 -612 4 -622 8 -19 7 -18 8 5 15
13 5 293 10 622 13 580 5 597 6 597 25 0 18 -17 19 -737 18 l-738 -2 -7 69
c-17 177 -61 388 -105 508 -14 39 -32 88 -40 110 -88 248 -224 456 -438 671
-303 304 -658 486 -1100 566 -116 21 -150 22 -981 25 l-861 4 -6 -728z m1518
-113 c239 -18 458 -96 621 -219 330 -249 494 -572 494 -973 0 -257 -61 -482
-184 -676 -31 -50 -174 -222 -184 -222 -4 0 -23 -14 -42 -32 -84 -75 -243
-167 -365 -211 -180 -64 -339 -78 -752 -63 l-223 9 0 26 c-3 441 2 2356 6
2362 7 12 475 11 629 -1z"/>
<path d="M7965 5708 c109 -124 549 -568 559 -565 6 2 11 9 11 15 0 23 -576
592 -600 592 -4 0 10 -19 30 -42z"/>
<path d="M1150 4087 c0 -8 322 -250 472 -354 64 -45 129 -91 145 -102 15 -12
43 -25 61 -30 30 -9 38 -6 100 41 37 28 69 53 72 57 3 3 25 22 50 42 25 20 55
45 66 55 12 11 64 53 115 94 113 90 179 155 179 175 0 13 -57 15 -433 15 -239
0 -522 3 -630 7 -109 3 -197 3 -197 0z"/>
<path d="M7459 2168 c-470 -469 -905 -901 -966 -960 -61 -60 -108 -108 -105
-109 4 -1 171 0 372 1 278 1 370 5 385 14 11 7 221 213 467 457 245 244 503
500 573 569 69 68 128 134 130 145 8 42 16 735 8 735 -5 0 -393 -384 -864
-852z"/>
</g>
</svg>
